<svg width="24" height="24" viewBox="0 0 24 24" fill="none" xmlns="http://www.w3.org/2000/svg">
<path d="M21.7266 10.5001H22.125C22.7484 10.5001 23.25 9.99853 23.25 9.37509V3.37509C23.25 2.9204 22.9781 2.5079 22.5563 2.33447C22.1344 2.16103 21.6516 2.25478 21.3281 2.57822L19.3781 4.52822C15.2719 0.473529 8.65782 0.487592 4.57501 4.57509C0.47345 8.67665 0.47345 15.3235 4.57501 19.4251C8.67657 23.5267 15.3234 23.5267 19.425 19.4251C20.0109 18.8392 20.0109 17.8876 19.425 17.3017C18.8391 16.7157 17.8875 16.7157 17.3016 17.3017C14.3719 20.2313 9.62345 20.2313 6.69376 17.3017C3.76407 14.372 3.76407 9.62353 6.69376 6.69384C9.60939 3.77822 14.3203 3.76415 17.2547 6.64697L15.3281 8.57822C15.0047 8.90165 14.9109 9.38447 15.0844 9.80634C15.2578 10.2282 15.6703 10.5001 16.125 10.5001H21.7266Z" fill="white"/>
</svg>