<svg width="70" height="70" viewBox="0 0 70 70" fill="none" xmlns="http://www.w3.org/2000/svg">
<path d="M35 13.125C28.3696 13.125 22.0107 15.4297 17.3223 19.532C12.6339 23.6344 10 29.1984 10 35C10 40.8016 12.6339 46.3656 17.3223 50.468C22.0107 54.5703 28.3696 56.875 35 56.875C41.6304 56.875 47.9893 54.5703 52.6777 50.468C57.3661 46.3656 60 40.8016 60 35C60 29.1984 57.3661 23.6344 52.6777 19.532C47.9893 15.4297 41.6304 13.125 35 13.125ZM70 35C70 43.1223 66.3125 50.9118 59.7487 56.6551C53.185 62.3984 44.2826 65.625 35 65.625C25.7174 65.625 16.815 62.3984 10.2513 56.6551C3.68749 50.9118 0 43.1223 0 35C0 26.8777 3.68749 19.0882 10.2513 13.3449C16.815 7.60155 25.7174 4.375 35 4.375C44.2826 4.375 53.185 7.60155 59.7487 13.3449C66.3125 19.0882 70 26.8777 70 35Z" fill="#3A314D"/>
</svg>