<svg width="70" height="70" viewBox="0 0 70 70" fill="none" xmlns="http://www.w3.org/2000/svg">
<g clip-path="url(#clip0_405_199)">
<path d="M68.651 11.5528C70.7109 9.69342 70.3828 6.9317 67.9036 5.38678C65.4245 3.84186 61.7422 4.08795 59.6823 5.94733L35 28.1641L10.3177 5.94733C8.25779 4.08795 4.5755 3.84186 2.09633 5.38678C-0.382835 6.9317 -0.71096 9.69342 1.34894 11.5528L27.3984 35.0001L1.34894 58.4473C-0.71096 60.3067 -0.382835 63.0684 2.09633 64.6133C4.5755 66.1583 8.25779 65.9122 10.3177 64.0528L35 41.836L59.6823 64.0528C61.7422 65.9122 65.4245 66.1583 67.9036 64.6133C70.3828 63.0684 70.7109 60.3067 68.651 58.4473L42.6015 35.0001L68.651 11.5528Z"/>
</g>
<defs>
<clipPath id="clip0_405_199">
<rect width="70" height="70"/>
</clipPath>
</defs>
</svg>